G75*
%MOIN*%
%OFA0B0*%
%FSLAX24Y24*%
%IPPOS*%
%LPD*%
%AMOC8*
5,1,8,0,0,1.08239X$1,22.5*
%
%ADD10C,0.0010*%
%ADD11C,0.0060*%
%ADD12C,0.0050*%
%ADD13R,0.0200X0.0200*%
D10*
X000160Y000160D02*
X000160Y015860D01*
X015860Y015860D01*
X015860Y000160D01*
X000160Y000160D01*
D11*
X001260Y003010D02*
X002760Y003010D01*
X003010Y003260D01*
X003010Y003760D01*
X002760Y004010D01*
X003010Y004260D01*
X003010Y004760D01*
X002760Y005010D01*
X003010Y005260D01*
X003010Y005760D01*
X002760Y006010D01*
X003010Y006260D01*
X003010Y006760D01*
X002760Y007010D01*
X003010Y007260D01*
X003010Y007760D01*
X002760Y008010D01*
X003010Y008260D01*
X003010Y008760D01*
X002760Y009010D01*
X003010Y009260D01*
X003010Y009760D01*
X002760Y010010D01*
X003010Y010260D01*
X003010Y010760D01*
X002760Y011010D01*
X003010Y011260D01*
X003010Y011760D01*
X002760Y012010D01*
X003010Y012260D01*
X003010Y012760D01*
X002760Y013010D01*
X001260Y013010D01*
X001010Y012760D01*
X001010Y012260D01*
X001260Y012010D01*
X001010Y011760D01*
X001010Y011260D01*
X001260Y011010D01*
X001010Y010760D01*
X001010Y010260D01*
X001260Y010010D01*
X001010Y009760D01*
X001010Y009260D01*
X001260Y009010D01*
X001010Y008760D01*
X001010Y008260D01*
X001260Y008010D01*
X001010Y007760D01*
X001010Y007260D01*
X001260Y007010D01*
X001010Y006760D01*
X001010Y006260D01*
X001260Y006010D01*
X001010Y005760D01*
X001010Y005260D01*
X001260Y005010D01*
X001010Y004760D01*
X001010Y004260D01*
X001260Y004010D01*
X001010Y003760D01*
X001010Y003260D01*
X001260Y003010D01*
X013010Y003260D02*
X013010Y003760D01*
X013260Y004010D01*
X013010Y004260D01*
X013010Y004760D01*
X013260Y005010D01*
X013010Y005260D01*
X013010Y005760D01*
X013260Y006010D01*
X013010Y006260D01*
X013010Y006760D01*
X013260Y007010D01*
X013010Y007260D01*
X013010Y007760D01*
X013260Y008010D01*
X013010Y008260D01*
X013010Y008760D01*
X013260Y009010D01*
X013010Y009260D01*
X013010Y009760D01*
X013260Y010010D01*
X013010Y010260D01*
X013010Y010760D01*
X013260Y011010D01*
X013010Y011260D01*
X013010Y011760D01*
X013260Y012010D01*
X013010Y012260D01*
X013010Y012760D01*
X013260Y013010D01*
X014760Y013010D01*
X015010Y012760D01*
X015010Y012260D01*
X014760Y012010D01*
X015010Y011760D01*
X015010Y011260D01*
X014760Y011010D01*
X015010Y010760D01*
X015010Y010260D01*
X014760Y010010D01*
X015010Y009760D01*
X015010Y009260D01*
X014760Y009010D01*
X015010Y008760D01*
X015010Y008260D01*
X014760Y008010D01*
X015010Y007760D01*
X015010Y007260D01*
X014760Y007010D01*
X015010Y006760D01*
X015010Y006260D01*
X014760Y006010D01*
X015010Y005760D01*
X015010Y005260D01*
X014760Y005010D01*
X015010Y004760D01*
X015010Y004260D01*
X014760Y004010D01*
X015010Y003760D01*
X015010Y003260D01*
X014760Y003010D01*
X013260Y003010D01*
X013010Y003260D01*
D12*
X012835Y003189D02*
X012760Y003114D01*
X012835Y003189D02*
X012835Y003339D01*
X012760Y003414D01*
X012685Y003414D01*
X012385Y003114D01*
X012385Y003414D01*
X012460Y003575D02*
X012760Y003875D01*
X012460Y003875D01*
X012385Y003800D01*
X012385Y003650D01*
X012460Y003575D01*
X012760Y003575D01*
X012835Y003650D01*
X012835Y003800D01*
X012760Y003875D01*
X015185Y012275D02*
X015185Y012575D01*
X015185Y012425D02*
X015635Y012425D01*
X015485Y012275D01*
X003635Y012425D02*
X003185Y012425D01*
X003185Y012275D02*
X003185Y012575D01*
X003485Y012275D02*
X003635Y012425D01*
X000760Y003875D02*
X000460Y003875D01*
X000385Y003800D01*
X000385Y003650D01*
X000460Y003575D01*
X000760Y003875D01*
X000835Y003800D01*
X000835Y003650D01*
X000760Y003575D01*
X000460Y003575D01*
X000385Y003414D02*
X000385Y003114D01*
X000685Y003414D01*
X000760Y003414D01*
X000835Y003339D01*
X000835Y003189D01*
X000760Y003114D01*
D13*
X001510Y003510D03*
X002510Y003510D03*
X002510Y004510D03*
X002510Y005510D03*
X002510Y006510D03*
X002510Y007510D03*
X001510Y007510D03*
X001510Y006510D03*
X001510Y005510D03*
X001510Y004510D03*
X001510Y008510D03*
X001510Y009510D03*
X001510Y010510D03*
X001510Y011510D03*
X002510Y011510D03*
X002510Y010510D03*
X002510Y009510D03*
X002510Y008510D03*
X002510Y012510D03*
X001510Y012510D03*
X013510Y012510D03*
X014510Y012510D03*
X014510Y011510D03*
X014510Y010510D03*
X014510Y009510D03*
X014510Y008510D03*
X013510Y008510D03*
X013510Y009510D03*
X013510Y010510D03*
X013510Y011510D03*
X013510Y007510D03*
X013510Y006510D03*
X013510Y005510D03*
X013510Y004510D03*
X014510Y004510D03*
X014510Y005510D03*
X014510Y006510D03*
X014510Y007510D03*
X014510Y003510D03*
X013510Y003510D03*
M02*
