G75*
%MOIN*%
%OFA0B0*%
%FSLAX24Y24*%
%IPPOS*%
%LPD*%
%AMOC8*
5,1,8,0,0,1.08239X$1,22.5*
%
%ADD10C,0.0010*%
%ADD11OC8,0.0720*%
%ADD12C,0.2180*%
%ADD13C,0.0880*%
D10*
X000160Y000160D02*
X000160Y015860D01*
X015860Y015860D01*
X015860Y000160D01*
X000160Y000160D01*
D11*
X001510Y003510D03*
X002510Y003510D03*
X002510Y004510D03*
X002510Y005510D03*
X002510Y006510D03*
X002510Y007510D03*
X001510Y007510D03*
X001510Y006510D03*
X001510Y005510D03*
X001510Y004510D03*
X001510Y008510D03*
X001510Y009510D03*
X001510Y010510D03*
X001510Y011510D03*
X002510Y011510D03*
X002510Y010510D03*
X002510Y009510D03*
X002510Y008510D03*
X002510Y012510D03*
X001510Y012510D03*
X013510Y012510D03*
X014510Y012510D03*
X014510Y011510D03*
X014510Y010510D03*
X014510Y009510D03*
X014510Y008510D03*
X013510Y008510D03*
X013510Y009510D03*
X013510Y010510D03*
X013510Y011510D03*
X013510Y007510D03*
X013510Y006510D03*
X013510Y005510D03*
X013510Y004510D03*
X014510Y004510D03*
X014510Y005510D03*
X014510Y006510D03*
X014510Y007510D03*
X014510Y003510D03*
X013510Y003510D03*
D12*
X014510Y001510D03*
X014510Y014510D03*
X001510Y014510D03*
X001510Y001510D03*
D13*
X003510Y001510D03*
X003510Y002510D03*
X003510Y003510D03*
X003510Y004510D03*
X003510Y005510D03*
X003510Y006510D03*
X003510Y007510D03*
X003510Y008510D03*
X003510Y009510D03*
X003510Y010510D03*
X003510Y011510D03*
X003510Y012510D03*
X003510Y013510D03*
X003510Y014510D03*
X004510Y014510D03*
X004510Y013510D03*
X004510Y012510D03*
X005510Y012510D03*
X005510Y013510D03*
X005510Y014510D03*
X006510Y014510D03*
X006510Y013510D03*
X006510Y012510D03*
X007510Y012510D03*
X007510Y013510D03*
X007510Y014510D03*
X008510Y014510D03*
X008510Y013510D03*
X008510Y012510D03*
X009510Y012510D03*
X009510Y013510D03*
X009510Y014510D03*
X010510Y014510D03*
X010510Y013510D03*
X010510Y012510D03*
X011510Y012510D03*
X011510Y013510D03*
X011510Y014510D03*
X012510Y014510D03*
X012510Y013510D03*
X012510Y012510D03*
X012510Y011510D03*
X012510Y010510D03*
X012510Y009510D03*
X012510Y008510D03*
X012510Y007510D03*
X012510Y006510D03*
X012510Y005510D03*
X012510Y004510D03*
X012510Y003510D03*
X012510Y002510D03*
X012510Y001510D03*
X011510Y001510D03*
X011510Y002510D03*
X011510Y003510D03*
X010510Y003510D03*
X010510Y002510D03*
X010510Y001510D03*
X009510Y001510D03*
X009510Y002510D03*
X009510Y003510D03*
X008510Y003510D03*
X008510Y002510D03*
X008510Y001510D03*
X007510Y001510D03*
X007510Y002510D03*
X007510Y003510D03*
X006510Y003510D03*
X006510Y002510D03*
X006510Y001510D03*
X005510Y001510D03*
X005510Y002510D03*
X005510Y003510D03*
X004510Y003510D03*
X004510Y002510D03*
X004510Y001510D03*
X004510Y004510D03*
X004510Y005510D03*
X004510Y006510D03*
X004510Y007510D03*
X005510Y007510D03*
X005510Y006510D03*
X005510Y005510D03*
X005510Y004510D03*
X006510Y004510D03*
X006510Y005510D03*
X006510Y006510D03*
X006510Y007510D03*
X007510Y007510D03*
X007510Y006510D03*
X007510Y005510D03*
X007510Y004510D03*
X008510Y004510D03*
X008510Y005510D03*
X008510Y006510D03*
X008510Y007510D03*
X009510Y007510D03*
X009510Y006510D03*
X009510Y005510D03*
X009510Y004510D03*
X010510Y004510D03*
X010510Y005510D03*
X010510Y006510D03*
X010510Y007510D03*
X011510Y007510D03*
X011510Y006510D03*
X011510Y005510D03*
X011510Y004510D03*
X011510Y008510D03*
X011510Y009510D03*
X011510Y010510D03*
X011510Y011510D03*
X010510Y011510D03*
X010510Y010510D03*
X010510Y009510D03*
X010510Y008510D03*
X009510Y008510D03*
X009510Y009510D03*
X009510Y010510D03*
X009510Y011510D03*
X008510Y011510D03*
X008510Y010510D03*
X008510Y009510D03*
X008510Y008510D03*
X007510Y008510D03*
X007510Y009510D03*
X007510Y010510D03*
X007510Y011510D03*
X006510Y011510D03*
X006510Y010510D03*
X006510Y009510D03*
X006510Y008510D03*
X005510Y008510D03*
X005510Y009510D03*
X005510Y010510D03*
X005510Y011510D03*
X004510Y011510D03*
X004510Y010510D03*
X004510Y009510D03*
X004510Y008510D03*
M02*
