G75*
%MOIN*%
%OFA0B0*%
%FSLAX24Y24*%
%IPPOS*%
%LPD*%
%AMOC8*
5,1,8,0,0,1.08239X$1,22.5*
%
%ADD10C,0.0010*%
%ADD11C,0.0060*%
%ADD12C,0.0020*%
%ADD13C,0.0090*%
%ADD14C,0.0180*%
%ADD15C,0.0080*%
D10*
X000160Y000160D02*
X000160Y015860D01*
X015860Y015860D01*
X015860Y000160D01*
X000160Y000160D01*
D11*
X000360Y001510D02*
X000362Y001577D01*
X000368Y001645D01*
X000378Y001712D01*
X000392Y001778D01*
X000409Y001843D01*
X000431Y001907D01*
X000456Y001970D01*
X000485Y002031D01*
X000517Y002090D01*
X000553Y002147D01*
X000592Y002202D01*
X000634Y002255D01*
X000679Y002305D01*
X000727Y002352D01*
X000778Y002397D01*
X000831Y002438D01*
X000887Y002477D01*
X000945Y002512D01*
X001005Y002543D01*
X001066Y002571D01*
X001129Y002595D01*
X001193Y002616D01*
X001259Y002632D01*
X001325Y002645D01*
X001392Y002654D01*
X001459Y002659D01*
X001527Y002660D01*
X001594Y002657D01*
X001661Y002650D01*
X001728Y002639D01*
X001794Y002624D01*
X001859Y002606D01*
X001923Y002583D01*
X001985Y002557D01*
X002046Y002528D01*
X002104Y002494D01*
X002161Y002458D01*
X002216Y002418D01*
X002268Y002375D01*
X002317Y002329D01*
X002364Y002280D01*
X002408Y002229D01*
X002448Y002175D01*
X002486Y002119D01*
X002520Y002060D01*
X002550Y002000D01*
X002577Y001938D01*
X002601Y001875D01*
X002620Y001810D01*
X002636Y001745D01*
X002648Y001678D01*
X002656Y001611D01*
X002660Y001544D01*
X002660Y001476D01*
X002656Y001409D01*
X002648Y001342D01*
X002636Y001275D01*
X002620Y001210D01*
X002601Y001145D01*
X002577Y001082D01*
X002550Y001020D01*
X002520Y000960D01*
X002486Y000901D01*
X002448Y000845D01*
X002408Y000791D01*
X002364Y000740D01*
X002317Y000691D01*
X002268Y000645D01*
X002216Y000602D01*
X002161Y000562D01*
X002104Y000526D01*
X002046Y000492D01*
X001985Y000463D01*
X001923Y000437D01*
X001859Y000414D01*
X001794Y000396D01*
X001728Y000381D01*
X001661Y000370D01*
X001594Y000363D01*
X001527Y000360D01*
X001459Y000361D01*
X001392Y000366D01*
X001325Y000375D01*
X001259Y000388D01*
X001193Y000404D01*
X001129Y000425D01*
X001066Y000449D01*
X001005Y000477D01*
X000945Y000508D01*
X000887Y000543D01*
X000831Y000582D01*
X000778Y000623D01*
X000727Y000668D01*
X000679Y000715D01*
X000634Y000765D01*
X000592Y000818D01*
X000553Y000873D01*
X000517Y000930D01*
X000485Y000989D01*
X000456Y001050D01*
X000431Y001113D01*
X000409Y001177D01*
X000392Y001242D01*
X000378Y001308D01*
X000368Y001375D01*
X000362Y001443D01*
X000360Y001510D01*
X002165Y002753D02*
X002219Y002700D01*
X002325Y002700D01*
X002379Y002753D01*
X002379Y002807D01*
X002325Y002860D01*
X002219Y002860D01*
X002165Y002914D01*
X002165Y002967D01*
X002219Y003020D01*
X002325Y003020D01*
X002379Y002967D01*
X002515Y003020D02*
X002515Y002807D01*
X002622Y002700D01*
X002729Y002807D01*
X002729Y003020D01*
X002865Y002914D02*
X002972Y003020D01*
X002972Y002700D01*
X003078Y002700D02*
X002865Y002700D01*
X005290Y000617D02*
X005290Y000447D01*
X005347Y000390D01*
X005517Y000390D01*
X005517Y000617D01*
X005658Y000730D02*
X005658Y000390D01*
X005885Y000390D02*
X005885Y000730D01*
X005772Y000617D01*
X005658Y000730D01*
X006083Y000617D02*
X006197Y000617D01*
X006253Y000560D01*
X006253Y000390D01*
X006083Y000390D01*
X006027Y000447D01*
X006083Y000503D01*
X006253Y000503D01*
X006395Y000617D02*
X006508Y000617D01*
X006452Y000674D02*
X006452Y000447D01*
X006508Y000390D01*
X006640Y000390D02*
X006640Y000617D01*
X006640Y000503D02*
X006754Y000617D01*
X006811Y000617D01*
X006947Y000617D02*
X007004Y000617D01*
X007004Y000390D01*
X006947Y000390D02*
X007061Y000390D01*
X007193Y000390D02*
X007420Y000617D01*
X007561Y000730D02*
X007561Y000390D01*
X007561Y000503D02*
X007731Y000503D01*
X007788Y000560D01*
X007788Y000674D01*
X007731Y000730D01*
X007561Y000730D01*
X007420Y000390D02*
X007193Y000617D01*
X007004Y000730D02*
X007004Y000787D01*
X007930Y000560D02*
X007930Y000447D01*
X007986Y000390D01*
X008156Y000390D01*
X008298Y000390D02*
X008468Y000390D01*
X008525Y000447D01*
X008525Y000560D01*
X008468Y000617D01*
X008298Y000617D01*
X008298Y000730D02*
X008298Y000390D01*
X008156Y000617D02*
X007986Y000617D01*
X007930Y000560D01*
X009403Y000503D02*
X009573Y000503D01*
X009630Y000560D01*
X009630Y000674D01*
X009573Y000730D01*
X009403Y000730D01*
X009403Y000390D01*
X009516Y000503D02*
X009630Y000390D01*
X009771Y000447D02*
X009771Y000560D01*
X009828Y000617D01*
X009941Y000617D01*
X009998Y000560D01*
X009998Y000503D01*
X009771Y000503D01*
X009771Y000447D02*
X009828Y000390D01*
X009941Y000390D01*
X010139Y000390D02*
X010253Y000390D01*
X010196Y000390D02*
X010196Y000730D01*
X010139Y000730D01*
X010385Y000617D02*
X010498Y000730D01*
X010498Y000390D01*
X010385Y000390D02*
X010612Y000390D01*
X013360Y001510D02*
X013362Y001577D01*
X013368Y001645D01*
X013378Y001712D01*
X013392Y001778D01*
X013409Y001843D01*
X013431Y001907D01*
X013456Y001970D01*
X013485Y002031D01*
X013517Y002090D01*
X013553Y002147D01*
X013592Y002202D01*
X013634Y002255D01*
X013679Y002305D01*
X013727Y002352D01*
X013778Y002397D01*
X013831Y002438D01*
X013887Y002477D01*
X013945Y002512D01*
X014005Y002543D01*
X014066Y002571D01*
X014129Y002595D01*
X014193Y002616D01*
X014259Y002632D01*
X014325Y002645D01*
X014392Y002654D01*
X014459Y002659D01*
X014527Y002660D01*
X014594Y002657D01*
X014661Y002650D01*
X014728Y002639D01*
X014794Y002624D01*
X014859Y002606D01*
X014923Y002583D01*
X014985Y002557D01*
X015046Y002528D01*
X015104Y002494D01*
X015161Y002458D01*
X015216Y002418D01*
X015268Y002375D01*
X015317Y002329D01*
X015364Y002280D01*
X015408Y002229D01*
X015448Y002175D01*
X015486Y002119D01*
X015520Y002060D01*
X015550Y002000D01*
X015577Y001938D01*
X015601Y001875D01*
X015620Y001810D01*
X015636Y001745D01*
X015648Y001678D01*
X015656Y001611D01*
X015660Y001544D01*
X015660Y001476D01*
X015656Y001409D01*
X015648Y001342D01*
X015636Y001275D01*
X015620Y001210D01*
X015601Y001145D01*
X015577Y001082D01*
X015550Y001020D01*
X015520Y000960D01*
X015486Y000901D01*
X015448Y000845D01*
X015408Y000791D01*
X015364Y000740D01*
X015317Y000691D01*
X015268Y000645D01*
X015216Y000602D01*
X015161Y000562D01*
X015104Y000526D01*
X015046Y000492D01*
X014985Y000463D01*
X014923Y000437D01*
X014859Y000414D01*
X014794Y000396D01*
X014728Y000381D01*
X014661Y000370D01*
X014594Y000363D01*
X014527Y000360D01*
X014459Y000361D01*
X014392Y000366D01*
X014325Y000375D01*
X014259Y000388D01*
X014193Y000404D01*
X014129Y000425D01*
X014066Y000449D01*
X014005Y000477D01*
X013945Y000508D01*
X013887Y000543D01*
X013831Y000582D01*
X013778Y000623D01*
X013727Y000668D01*
X013679Y000715D01*
X013634Y000765D01*
X013592Y000818D01*
X013553Y000873D01*
X013517Y000930D01*
X013485Y000989D01*
X013456Y001050D01*
X013431Y001113D01*
X013409Y001177D01*
X013392Y001242D01*
X013378Y001308D01*
X013368Y001375D01*
X013362Y001443D01*
X013360Y001510D01*
X013619Y012950D02*
X013565Y013003D01*
X013619Y012950D02*
X013725Y012950D01*
X013779Y013003D01*
X013779Y013057D01*
X013725Y013110D01*
X013619Y013110D01*
X013565Y013164D01*
X013565Y013217D01*
X013619Y013270D01*
X013725Y013270D01*
X013779Y013217D01*
X013915Y013270D02*
X013915Y013057D01*
X014022Y012950D01*
X014129Y013057D01*
X014129Y013270D01*
X014265Y013217D02*
X014318Y013270D01*
X014425Y013270D01*
X014478Y013217D01*
X014478Y013164D01*
X014265Y012950D01*
X014478Y012950D01*
X013360Y014510D02*
X013362Y014577D01*
X013368Y014645D01*
X013378Y014712D01*
X013392Y014778D01*
X013409Y014843D01*
X013431Y014907D01*
X013456Y014970D01*
X013485Y015031D01*
X013517Y015090D01*
X013553Y015147D01*
X013592Y015202D01*
X013634Y015255D01*
X013679Y015305D01*
X013727Y015352D01*
X013778Y015397D01*
X013831Y015438D01*
X013887Y015477D01*
X013945Y015512D01*
X014005Y015543D01*
X014066Y015571D01*
X014129Y015595D01*
X014193Y015616D01*
X014259Y015632D01*
X014325Y015645D01*
X014392Y015654D01*
X014459Y015659D01*
X014527Y015660D01*
X014594Y015657D01*
X014661Y015650D01*
X014728Y015639D01*
X014794Y015624D01*
X014859Y015606D01*
X014923Y015583D01*
X014985Y015557D01*
X015046Y015528D01*
X015104Y015494D01*
X015161Y015458D01*
X015216Y015418D01*
X015268Y015375D01*
X015317Y015329D01*
X015364Y015280D01*
X015408Y015229D01*
X015448Y015175D01*
X015486Y015119D01*
X015520Y015060D01*
X015550Y015000D01*
X015577Y014938D01*
X015601Y014875D01*
X015620Y014810D01*
X015636Y014745D01*
X015648Y014678D01*
X015656Y014611D01*
X015660Y014544D01*
X015660Y014476D01*
X015656Y014409D01*
X015648Y014342D01*
X015636Y014275D01*
X015620Y014210D01*
X015601Y014145D01*
X015577Y014082D01*
X015550Y014020D01*
X015520Y013960D01*
X015486Y013901D01*
X015448Y013845D01*
X015408Y013791D01*
X015364Y013740D01*
X015317Y013691D01*
X015268Y013645D01*
X015216Y013602D01*
X015161Y013562D01*
X015104Y013526D01*
X015046Y013492D01*
X014985Y013463D01*
X014923Y013437D01*
X014859Y013414D01*
X014794Y013396D01*
X014728Y013381D01*
X014661Y013370D01*
X014594Y013363D01*
X014527Y013360D01*
X014459Y013361D01*
X014392Y013366D01*
X014325Y013375D01*
X014259Y013388D01*
X014193Y013404D01*
X014129Y013425D01*
X014066Y013449D01*
X014005Y013477D01*
X013945Y013508D01*
X013887Y013543D01*
X013831Y013582D01*
X013778Y013623D01*
X013727Y013668D01*
X013679Y013715D01*
X013634Y013765D01*
X013592Y013818D01*
X013553Y013873D01*
X013517Y013930D01*
X013485Y013989D01*
X013456Y014050D01*
X013431Y014113D01*
X013409Y014177D01*
X013392Y014242D01*
X013378Y014308D01*
X013368Y014375D01*
X013362Y014443D01*
X013360Y014510D01*
X011336Y015190D02*
X011279Y015247D01*
X011279Y015474D01*
X011222Y015417D02*
X011336Y015417D01*
X011033Y015417D02*
X011033Y015190D01*
X010977Y015190D02*
X011090Y015190D01*
X011033Y015417D02*
X010977Y015417D01*
X011033Y015530D02*
X011033Y015587D01*
X010849Y015247D02*
X010849Y015190D01*
X010792Y015190D01*
X010792Y015247D01*
X010849Y015247D01*
X010651Y015303D02*
X010424Y015303D01*
X010424Y015247D02*
X010424Y015360D01*
X010481Y015417D01*
X010594Y015417D01*
X010651Y015360D01*
X010651Y015303D01*
X010594Y015190D02*
X010481Y015190D01*
X010424Y015247D01*
X010283Y015190D02*
X010283Y015360D01*
X010226Y015417D01*
X010113Y015417D01*
X010056Y015360D01*
X009914Y015417D02*
X009744Y015417D01*
X009687Y015360D01*
X009687Y015247D01*
X009744Y015190D01*
X009914Y015190D01*
X010056Y015190D02*
X010056Y015530D01*
X009499Y015530D02*
X009499Y015587D01*
X009499Y015417D02*
X009442Y015417D01*
X009499Y015417D02*
X009499Y015190D01*
X009555Y015190D02*
X009442Y015190D01*
X009310Y015190D02*
X009253Y015247D01*
X009253Y015474D01*
X009196Y015417D02*
X009310Y015417D01*
X009055Y015360D02*
X008998Y015417D01*
X008885Y015417D01*
X008828Y015360D01*
X008828Y015247D01*
X008885Y015190D01*
X008998Y015190D01*
X009055Y015247D01*
X009055Y015360D01*
X008687Y015360D02*
X008630Y015417D01*
X008460Y015417D01*
X008460Y015530D02*
X008460Y015190D01*
X008630Y015190D01*
X008687Y015247D01*
X008687Y015360D01*
X008318Y015360D02*
X008262Y015417D01*
X008148Y015417D01*
X008091Y015360D01*
X008091Y015247D01*
X008148Y015190D01*
X008262Y015190D01*
X008318Y015247D01*
X008318Y015360D01*
X007955Y015417D02*
X007898Y015417D01*
X007785Y015303D01*
X007785Y015190D02*
X007785Y015417D01*
X007643Y015360D02*
X007643Y015303D01*
X007416Y015303D01*
X007416Y015247D02*
X007416Y015360D01*
X007473Y015417D01*
X007586Y015417D01*
X007643Y015360D01*
X007586Y015190D02*
X007473Y015190D01*
X007416Y015247D01*
X007275Y015190D02*
X007275Y015360D01*
X007218Y015417D01*
X007048Y015417D01*
X007048Y015190D01*
X006916Y015190D02*
X006802Y015190D01*
X006859Y015190D02*
X006859Y015417D01*
X006802Y015417D01*
X006859Y015530D02*
X006859Y015587D01*
X006661Y015417D02*
X006491Y015417D01*
X006434Y015360D01*
X006434Y015247D01*
X006491Y015190D01*
X006661Y015190D01*
X006302Y015190D02*
X006189Y015190D01*
X006245Y015190D02*
X006245Y015417D01*
X006189Y015417D01*
X006245Y015530D02*
X006245Y015587D01*
X006056Y015530D02*
X006000Y015474D01*
X006000Y015190D01*
X006056Y015360D02*
X005943Y015360D01*
X005811Y015360D02*
X005697Y015360D01*
X005754Y015474D02*
X005754Y015190D01*
X005556Y015247D02*
X005556Y015360D01*
X005499Y015417D01*
X005386Y015417D01*
X005329Y015360D01*
X005329Y015247D01*
X005386Y015190D01*
X005499Y015190D01*
X005556Y015247D01*
X005754Y015474D02*
X005811Y015530D01*
X005202Y015247D02*
X005202Y015190D01*
X005145Y015190D01*
X005145Y015247D01*
X005202Y015247D01*
X005003Y015247D02*
X005003Y015417D01*
X005003Y015247D02*
X004947Y015190D01*
X004890Y015247D01*
X004833Y015190D01*
X004777Y015247D01*
X004777Y015417D01*
X004635Y015417D02*
X004635Y015247D01*
X004578Y015190D01*
X004522Y015247D01*
X004465Y015190D01*
X004408Y015247D01*
X004408Y015417D01*
X004267Y015417D02*
X004267Y015247D01*
X004210Y015190D01*
X004153Y015247D01*
X004097Y015190D01*
X004040Y015247D01*
X004040Y015417D01*
X000360Y014510D02*
X000362Y014577D01*
X000368Y014645D01*
X000378Y014712D01*
X000392Y014778D01*
X000409Y014843D01*
X000431Y014907D01*
X000456Y014970D01*
X000485Y015031D01*
X000517Y015090D01*
X000553Y015147D01*
X000592Y015202D01*
X000634Y015255D01*
X000679Y015305D01*
X000727Y015352D01*
X000778Y015397D01*
X000831Y015438D01*
X000887Y015477D01*
X000945Y015512D01*
X001005Y015543D01*
X001066Y015571D01*
X001129Y015595D01*
X001193Y015616D01*
X001259Y015632D01*
X001325Y015645D01*
X001392Y015654D01*
X001459Y015659D01*
X001527Y015660D01*
X001594Y015657D01*
X001661Y015650D01*
X001728Y015639D01*
X001794Y015624D01*
X001859Y015606D01*
X001923Y015583D01*
X001985Y015557D01*
X002046Y015528D01*
X002104Y015494D01*
X002161Y015458D01*
X002216Y015418D01*
X002268Y015375D01*
X002317Y015329D01*
X002364Y015280D01*
X002408Y015229D01*
X002448Y015175D01*
X002486Y015119D01*
X002520Y015060D01*
X002550Y015000D01*
X002577Y014938D01*
X002601Y014875D01*
X002620Y014810D01*
X002636Y014745D01*
X002648Y014678D01*
X002656Y014611D01*
X002660Y014544D01*
X002660Y014476D01*
X002656Y014409D01*
X002648Y014342D01*
X002636Y014275D01*
X002620Y014210D01*
X002601Y014145D01*
X002577Y014082D01*
X002550Y014020D01*
X002520Y013960D01*
X002486Y013901D01*
X002448Y013845D01*
X002408Y013791D01*
X002364Y013740D01*
X002317Y013691D01*
X002268Y013645D01*
X002216Y013602D01*
X002161Y013562D01*
X002104Y013526D01*
X002046Y013492D01*
X001985Y013463D01*
X001923Y013437D01*
X001859Y013414D01*
X001794Y013396D01*
X001728Y013381D01*
X001661Y013370D01*
X001594Y013363D01*
X001527Y013360D01*
X001459Y013361D01*
X001392Y013366D01*
X001325Y013375D01*
X001259Y013388D01*
X001193Y013404D01*
X001129Y013425D01*
X001066Y013449D01*
X001005Y013477D01*
X000945Y013508D01*
X000887Y013543D01*
X000831Y013582D01*
X000778Y013623D01*
X000727Y013668D01*
X000679Y013715D01*
X000634Y013765D01*
X000592Y013818D01*
X000553Y013873D01*
X000517Y013930D01*
X000485Y013989D01*
X000456Y014050D01*
X000431Y014113D01*
X000409Y014177D01*
X000392Y014242D01*
X000378Y014308D01*
X000368Y014375D01*
X000362Y014443D01*
X000360Y014510D01*
D12*
X001510Y013460D02*
X001510Y013360D01*
X001510Y015560D02*
X001510Y015660D01*
X001510Y002660D02*
X001510Y002560D01*
X001510Y000460D02*
X001510Y000360D01*
X014510Y000460D02*
X014510Y000360D01*
X014510Y002560D02*
X014510Y002660D01*
X014510Y013360D02*
X014510Y013460D01*
X014510Y015560D02*
X014510Y015660D01*
D13*
X015614Y014554D02*
X014801Y014554D01*
X014802Y014555D02*
X014794Y014588D01*
X014784Y014620D01*
X014769Y014651D01*
X014751Y014680D01*
X014730Y014706D01*
X014706Y014730D01*
X014680Y014751D01*
X014651Y014769D01*
X014620Y014784D01*
X014588Y014794D01*
X014555Y014802D01*
X014554Y015614D01*
X014555Y015614D01*
X014621Y015609D01*
X014686Y015601D01*
X014751Y015589D01*
X014814Y015572D01*
X014877Y015552D01*
X014938Y015529D01*
X014998Y015501D01*
X015056Y015470D01*
X015113Y015436D01*
X015167Y015399D01*
X015219Y015358D01*
X015268Y015314D01*
X015314Y015268D01*
X015358Y015219D01*
X015399Y015167D01*
X015436Y015113D01*
X015470Y015056D01*
X015501Y014998D01*
X015529Y014938D01*
X015552Y014877D01*
X015572Y014814D01*
X015589Y014751D01*
X015601Y014686D01*
X015609Y014621D01*
X015614Y014555D01*
X015529Y014555D01*
X015524Y014618D01*
X015516Y014680D01*
X015503Y014742D01*
X015487Y014803D01*
X015467Y014863D01*
X015444Y014921D01*
X015416Y014978D01*
X015386Y015033D01*
X015352Y015086D01*
X015315Y015137D01*
X015274Y015185D01*
X015231Y015231D01*
X015185Y015274D01*
X015137Y015315D01*
X015086Y015352D01*
X015033Y015386D01*
X014978Y015416D01*
X014921Y015444D01*
X014863Y015467D01*
X014803Y015487D01*
X014742Y015503D01*
X014680Y015516D01*
X014618Y015524D01*
X014555Y015529D01*
X014555Y015444D01*
X014615Y015439D01*
X014674Y015430D01*
X014733Y015418D01*
X014790Y015402D01*
X014847Y015382D01*
X014902Y015359D01*
X014956Y015332D01*
X015007Y015302D01*
X015057Y015268D01*
X015105Y015232D01*
X015150Y015192D01*
X015192Y015150D01*
X015232Y015105D01*
X015268Y015057D01*
X015302Y015007D01*
X015332Y014956D01*
X015359Y014902D01*
X015382Y014847D01*
X015402Y014790D01*
X015418Y014733D01*
X015430Y014674D01*
X015439Y014615D01*
X015444Y014555D01*
X015359Y014555D01*
X015354Y014611D01*
X015345Y014667D01*
X015333Y014723D01*
X015317Y014777D01*
X015297Y014830D01*
X015274Y014882D01*
X015248Y014932D01*
X015218Y014980D01*
X015186Y015026D01*
X015150Y015070D01*
X015111Y015111D01*
X015070Y015150D01*
X015026Y015186D01*
X014980Y015218D01*
X014932Y015248D01*
X014882Y015274D01*
X014830Y015297D01*
X014777Y015317D01*
X014723Y015333D01*
X014667Y015345D01*
X014611Y015354D01*
X014555Y015359D01*
X014555Y015274D01*
X014608Y015269D01*
X014660Y015260D01*
X014711Y015248D01*
X014762Y015232D01*
X014811Y015213D01*
X014859Y015191D01*
X014905Y015165D01*
X014950Y015136D01*
X014992Y015104D01*
X015032Y015069D01*
X015069Y015032D01*
X015104Y014992D01*
X015136Y014950D01*
X015165Y014905D01*
X015191Y014859D01*
X015213Y014811D01*
X015232Y014762D01*
X015248Y014711D01*
X015260Y014660D01*
X015269Y014608D01*
X015274Y014555D01*
X015189Y014555D01*
X015183Y014606D01*
X015174Y014657D01*
X015161Y014707D01*
X015144Y014755D01*
X015124Y014803D01*
X015100Y014848D01*
X015073Y014892D01*
X015042Y014933D01*
X015009Y014972D01*
X014972Y015009D01*
X014933Y015042D01*
X014892Y015073D01*
X014848Y015100D01*
X014803Y015124D01*
X014755Y015144D01*
X014707Y015161D01*
X014657Y015174D01*
X014606Y015183D01*
X014555Y015189D01*
X014555Y015103D01*
X014602Y015098D01*
X014648Y015089D01*
X014693Y015076D01*
X014737Y015060D01*
X014779Y015040D01*
X014820Y015018D01*
X014859Y014992D01*
X014896Y014963D01*
X014931Y014931D01*
X014963Y014896D01*
X014992Y014859D01*
X015018Y014820D01*
X015040Y014779D01*
X015060Y014737D01*
X015076Y014693D01*
X015089Y014648D01*
X015098Y014602D01*
X015103Y014555D01*
X015018Y014555D01*
X015012Y014599D01*
X015003Y014642D01*
X014989Y014685D01*
X014972Y014726D01*
X014952Y014765D01*
X014928Y014803D01*
X014901Y014838D01*
X014871Y014871D01*
X014838Y014901D01*
X014803Y014928D01*
X014765Y014952D01*
X014726Y014972D01*
X014685Y014989D01*
X014642Y015003D01*
X014599Y015012D01*
X014555Y015018D01*
X014555Y014933D01*
X014593Y014927D01*
X014630Y014918D01*
X014667Y014905D01*
X014702Y014889D01*
X014735Y014870D01*
X014767Y014848D01*
X014797Y014824D01*
X014824Y014797D01*
X014848Y014767D01*
X014870Y014735D01*
X014889Y014702D01*
X014905Y014667D01*
X014918Y014630D01*
X014927Y014593D01*
X014933Y014555D01*
X014847Y014555D01*
X014841Y014588D01*
X014831Y014621D01*
X014819Y014653D01*
X014803Y014683D01*
X014784Y014712D01*
X014762Y014738D01*
X014738Y014762D01*
X014712Y014784D01*
X014683Y014803D01*
X014653Y014819D01*
X014621Y014831D01*
X014588Y014841D01*
X014555Y014847D01*
X013406Y014466D02*
X014219Y014466D01*
X014218Y014465D02*
X014226Y014432D01*
X014236Y014400D01*
X014251Y014369D01*
X014269Y014340D01*
X014290Y014314D01*
X014314Y014290D01*
X014340Y014269D01*
X014369Y014251D01*
X014400Y014236D01*
X014432Y014226D01*
X014465Y014218D01*
X014466Y013406D01*
X014465Y013406D01*
X014399Y013411D01*
X014334Y013419D01*
X014269Y013431D01*
X014206Y013448D01*
X014143Y013468D01*
X014082Y013491D01*
X014022Y013519D01*
X013964Y013550D01*
X013907Y013584D01*
X013853Y013621D01*
X013801Y013662D01*
X013752Y013706D01*
X013706Y013752D01*
X013662Y013801D01*
X013621Y013853D01*
X013584Y013907D01*
X013550Y013964D01*
X013519Y014022D01*
X013491Y014082D01*
X013468Y014143D01*
X013448Y014206D01*
X013431Y014269D01*
X013419Y014334D01*
X013411Y014399D01*
X013406Y014465D01*
X013491Y014465D01*
X013496Y014402D01*
X013504Y014340D01*
X013517Y014278D01*
X013533Y014217D01*
X013553Y014157D01*
X013576Y014099D01*
X013604Y014042D01*
X013634Y013987D01*
X013668Y013934D01*
X013705Y013883D01*
X013746Y013835D01*
X013789Y013789D01*
X013835Y013746D01*
X013883Y013705D01*
X013934Y013668D01*
X013987Y013634D01*
X014042Y013604D01*
X014099Y013576D01*
X014157Y013553D01*
X014217Y013533D01*
X014278Y013517D01*
X014340Y013504D01*
X014402Y013496D01*
X014465Y013491D01*
X014465Y013576D01*
X014405Y013581D01*
X014346Y013590D01*
X014287Y013602D01*
X014230Y013618D01*
X014173Y013638D01*
X014118Y013661D01*
X014064Y013688D01*
X014013Y013718D01*
X013963Y013752D01*
X013915Y013788D01*
X013870Y013828D01*
X013828Y013870D01*
X013788Y013915D01*
X013752Y013963D01*
X013718Y014013D01*
X013688Y014064D01*
X013661Y014118D01*
X013638Y014173D01*
X013618Y014230D01*
X013602Y014287D01*
X013590Y014346D01*
X013581Y014405D01*
X013576Y014465D01*
X013661Y014465D01*
X013666Y014409D01*
X013675Y014353D01*
X013687Y014297D01*
X013703Y014243D01*
X013723Y014190D01*
X013746Y014138D01*
X013772Y014088D01*
X013802Y014040D01*
X013834Y013994D01*
X013870Y013950D01*
X013909Y013909D01*
X013950Y013870D01*
X013994Y013834D01*
X014040Y013802D01*
X014088Y013772D01*
X014138Y013746D01*
X014190Y013723D01*
X014243Y013703D01*
X014297Y013687D01*
X014353Y013675D01*
X014409Y013666D01*
X014465Y013661D01*
X014465Y013746D01*
X014412Y013751D01*
X014360Y013760D01*
X014309Y013772D01*
X014258Y013788D01*
X014209Y013807D01*
X014161Y013829D01*
X014115Y013855D01*
X014070Y013884D01*
X014028Y013916D01*
X013988Y013951D01*
X013951Y013988D01*
X013916Y014028D01*
X013884Y014070D01*
X013855Y014115D01*
X013829Y014161D01*
X013807Y014209D01*
X013788Y014258D01*
X013772Y014309D01*
X013760Y014360D01*
X013751Y014412D01*
X013746Y014465D01*
X013831Y014465D01*
X013837Y014414D01*
X013846Y014363D01*
X013859Y014313D01*
X013876Y014265D01*
X013896Y014217D01*
X013920Y014172D01*
X013947Y014128D01*
X013978Y014087D01*
X014011Y014048D01*
X014048Y014011D01*
X014087Y013978D01*
X014128Y013947D01*
X014172Y013920D01*
X014217Y013896D01*
X014265Y013876D01*
X014313Y013859D01*
X014363Y013846D01*
X014414Y013837D01*
X014465Y013831D01*
X014465Y013917D01*
X014418Y013922D01*
X014372Y013931D01*
X014327Y013944D01*
X014283Y013960D01*
X014241Y013980D01*
X014200Y014002D01*
X014161Y014028D01*
X014124Y014057D01*
X014089Y014089D01*
X014057Y014124D01*
X014028Y014161D01*
X014002Y014200D01*
X013980Y014241D01*
X013960Y014283D01*
X013944Y014327D01*
X013931Y014372D01*
X013922Y014418D01*
X013917Y014465D01*
X014002Y014465D01*
X014008Y014421D01*
X014017Y014378D01*
X014031Y014335D01*
X014048Y014294D01*
X014068Y014255D01*
X014092Y014217D01*
X014119Y014182D01*
X014149Y014149D01*
X014182Y014119D01*
X014217Y014092D01*
X014255Y014068D01*
X014294Y014048D01*
X014335Y014031D01*
X014378Y014017D01*
X014421Y014008D01*
X014465Y014002D01*
X014465Y014087D01*
X014427Y014093D01*
X014390Y014102D01*
X014353Y014115D01*
X014318Y014131D01*
X014285Y014150D01*
X014253Y014172D01*
X014223Y014196D01*
X014196Y014223D01*
X014172Y014253D01*
X014150Y014285D01*
X014131Y014318D01*
X014115Y014353D01*
X014102Y014390D01*
X014093Y014427D01*
X014087Y014465D01*
X014173Y014465D01*
X014179Y014432D01*
X014189Y014399D01*
X014201Y014367D01*
X014217Y014337D01*
X014236Y014308D01*
X014258Y014282D01*
X014282Y014258D01*
X014308Y014236D01*
X014337Y014217D01*
X014367Y014201D01*
X014399Y014189D01*
X014432Y014179D01*
X014465Y014173D01*
X015614Y001554D02*
X014801Y001554D01*
X014802Y001555D02*
X014794Y001588D01*
X014784Y001620D01*
X014769Y001651D01*
X014751Y001680D01*
X014730Y001706D01*
X014706Y001730D01*
X014680Y001751D01*
X014651Y001769D01*
X014620Y001784D01*
X014588Y001794D01*
X014555Y001802D01*
X014554Y002614D01*
X014555Y002614D01*
X014621Y002609D01*
X014686Y002601D01*
X014751Y002589D01*
X014814Y002572D01*
X014877Y002552D01*
X014938Y002529D01*
X014998Y002501D01*
X015056Y002470D01*
X015113Y002436D01*
X015167Y002399D01*
X015219Y002358D01*
X015268Y002314D01*
X015314Y002268D01*
X015358Y002219D01*
X015399Y002167D01*
X015436Y002113D01*
X015470Y002056D01*
X015501Y001998D01*
X015529Y001938D01*
X015552Y001877D01*
X015572Y001814D01*
X015589Y001751D01*
X015601Y001686D01*
X015609Y001621D01*
X015614Y001555D01*
X015529Y001555D01*
X015524Y001618D01*
X015516Y001680D01*
X015503Y001742D01*
X015487Y001803D01*
X015467Y001863D01*
X015444Y001921D01*
X015416Y001978D01*
X015386Y002033D01*
X015352Y002086D01*
X015315Y002137D01*
X015274Y002185D01*
X015231Y002231D01*
X015185Y002274D01*
X015137Y002315D01*
X015086Y002352D01*
X015033Y002386D01*
X014978Y002416D01*
X014921Y002444D01*
X014863Y002467D01*
X014803Y002487D01*
X014742Y002503D01*
X014680Y002516D01*
X014618Y002524D01*
X014555Y002529D01*
X014555Y002444D01*
X014615Y002439D01*
X014674Y002430D01*
X014733Y002418D01*
X014790Y002402D01*
X014847Y002382D01*
X014902Y002359D01*
X014956Y002332D01*
X015007Y002302D01*
X015057Y002268D01*
X015105Y002232D01*
X015150Y002192D01*
X015192Y002150D01*
X015232Y002105D01*
X015268Y002057D01*
X015302Y002007D01*
X015332Y001956D01*
X015359Y001902D01*
X015382Y001847D01*
X015402Y001790D01*
X015418Y001733D01*
X015430Y001674D01*
X015439Y001615D01*
X015444Y001555D01*
X015359Y001555D01*
X015354Y001611D01*
X015345Y001667D01*
X015333Y001723D01*
X015317Y001777D01*
X015297Y001830D01*
X015274Y001882D01*
X015248Y001932D01*
X015218Y001980D01*
X015186Y002026D01*
X015150Y002070D01*
X015111Y002111D01*
X015070Y002150D01*
X015026Y002186D01*
X014980Y002218D01*
X014932Y002248D01*
X014882Y002274D01*
X014830Y002297D01*
X014777Y002317D01*
X014723Y002333D01*
X014667Y002345D01*
X014611Y002354D01*
X014555Y002359D01*
X014555Y002274D01*
X014608Y002269D01*
X014660Y002260D01*
X014711Y002248D01*
X014762Y002232D01*
X014811Y002213D01*
X014859Y002191D01*
X014905Y002165D01*
X014950Y002136D01*
X014992Y002104D01*
X015032Y002069D01*
X015069Y002032D01*
X015104Y001992D01*
X015136Y001950D01*
X015165Y001905D01*
X015191Y001859D01*
X015213Y001811D01*
X015232Y001762D01*
X015248Y001711D01*
X015260Y001660D01*
X015269Y001608D01*
X015274Y001555D01*
X015189Y001555D01*
X015183Y001606D01*
X015174Y001657D01*
X015161Y001707D01*
X015144Y001755D01*
X015124Y001803D01*
X015100Y001848D01*
X015073Y001892D01*
X015042Y001933D01*
X015009Y001972D01*
X014972Y002009D01*
X014933Y002042D01*
X014892Y002073D01*
X014848Y002100D01*
X014803Y002124D01*
X014755Y002144D01*
X014707Y002161D01*
X014657Y002174D01*
X014606Y002183D01*
X014555Y002189D01*
X014555Y002103D01*
X014602Y002098D01*
X014648Y002089D01*
X014693Y002076D01*
X014737Y002060D01*
X014779Y002040D01*
X014820Y002018D01*
X014859Y001992D01*
X014896Y001963D01*
X014931Y001931D01*
X014963Y001896D01*
X014992Y001859D01*
X015018Y001820D01*
X015040Y001779D01*
X015060Y001737D01*
X015076Y001693D01*
X015089Y001648D01*
X015098Y001602D01*
X015103Y001555D01*
X015018Y001555D01*
X015012Y001599D01*
X015003Y001642D01*
X014989Y001685D01*
X014972Y001726D01*
X014952Y001765D01*
X014928Y001803D01*
X014901Y001838D01*
X014871Y001871D01*
X014838Y001901D01*
X014803Y001928D01*
X014765Y001952D01*
X014726Y001972D01*
X014685Y001989D01*
X014642Y002003D01*
X014599Y002012D01*
X014555Y002018D01*
X014555Y001933D01*
X014593Y001927D01*
X014630Y001918D01*
X014667Y001905D01*
X014702Y001889D01*
X014735Y001870D01*
X014767Y001848D01*
X014797Y001824D01*
X014824Y001797D01*
X014848Y001767D01*
X014870Y001735D01*
X014889Y001702D01*
X014905Y001667D01*
X014918Y001630D01*
X014927Y001593D01*
X014933Y001555D01*
X014847Y001555D01*
X014841Y001588D01*
X014831Y001621D01*
X014819Y001653D01*
X014803Y001683D01*
X014784Y001712D01*
X014762Y001738D01*
X014738Y001762D01*
X014712Y001784D01*
X014683Y001803D01*
X014653Y001819D01*
X014621Y001831D01*
X014588Y001841D01*
X014555Y001847D01*
X013406Y001466D02*
X014219Y001466D01*
X014218Y001465D02*
X014226Y001432D01*
X014236Y001400D01*
X014251Y001369D01*
X014269Y001340D01*
X014290Y001314D01*
X014314Y001290D01*
X014340Y001269D01*
X014369Y001251D01*
X014400Y001236D01*
X014432Y001226D01*
X014465Y001218D01*
X014466Y000406D01*
X014465Y000406D01*
X014399Y000411D01*
X014334Y000419D01*
X014269Y000431D01*
X014206Y000448D01*
X014143Y000468D01*
X014082Y000491D01*
X014022Y000519D01*
X013964Y000550D01*
X013907Y000584D01*
X013853Y000621D01*
X013801Y000662D01*
X013752Y000706D01*
X013706Y000752D01*
X013662Y000801D01*
X013621Y000853D01*
X013584Y000907D01*
X013550Y000964D01*
X013519Y001022D01*
X013491Y001082D01*
X013468Y001143D01*
X013448Y001206D01*
X013431Y001269D01*
X013419Y001334D01*
X013411Y001399D01*
X013406Y001465D01*
X013491Y001465D01*
X013496Y001402D01*
X013504Y001340D01*
X013517Y001278D01*
X013533Y001217D01*
X013553Y001157D01*
X013576Y001099D01*
X013604Y001042D01*
X013634Y000987D01*
X013668Y000934D01*
X013705Y000883D01*
X013746Y000835D01*
X013789Y000789D01*
X013835Y000746D01*
X013883Y000705D01*
X013934Y000668D01*
X013987Y000634D01*
X014042Y000604D01*
X014099Y000576D01*
X014157Y000553D01*
X014217Y000533D01*
X014278Y000517D01*
X014340Y000504D01*
X014402Y000496D01*
X014465Y000491D01*
X014465Y000576D01*
X014405Y000581D01*
X014346Y000590D01*
X014287Y000602D01*
X014230Y000618D01*
X014173Y000638D01*
X014118Y000661D01*
X014064Y000688D01*
X014013Y000718D01*
X013963Y000752D01*
X013915Y000788D01*
X013870Y000828D01*
X013828Y000870D01*
X013788Y000915D01*
X013752Y000963D01*
X013718Y001013D01*
X013688Y001064D01*
X013661Y001118D01*
X013638Y001173D01*
X013618Y001230D01*
X013602Y001287D01*
X013590Y001346D01*
X013581Y001405D01*
X013576Y001465D01*
X013661Y001465D01*
X013666Y001409D01*
X013675Y001353D01*
X013687Y001297D01*
X013703Y001243D01*
X013723Y001190D01*
X013746Y001138D01*
X013772Y001088D01*
X013802Y001040D01*
X013834Y000994D01*
X013870Y000950D01*
X013909Y000909D01*
X013950Y000870D01*
X013994Y000834D01*
X014040Y000802D01*
X014088Y000772D01*
X014138Y000746D01*
X014190Y000723D01*
X014243Y000703D01*
X014297Y000687D01*
X014353Y000675D01*
X014409Y000666D01*
X014465Y000661D01*
X014465Y000746D01*
X014412Y000751D01*
X014360Y000760D01*
X014309Y000772D01*
X014258Y000788D01*
X014209Y000807D01*
X014161Y000829D01*
X014115Y000855D01*
X014070Y000884D01*
X014028Y000916D01*
X013988Y000951D01*
X013951Y000988D01*
X013916Y001028D01*
X013884Y001070D01*
X013855Y001115D01*
X013829Y001161D01*
X013807Y001209D01*
X013788Y001258D01*
X013772Y001309D01*
X013760Y001360D01*
X013751Y001412D01*
X013746Y001465D01*
X013831Y001465D01*
X013837Y001414D01*
X013846Y001363D01*
X013859Y001313D01*
X013876Y001265D01*
X013896Y001217D01*
X013920Y001172D01*
X013947Y001128D01*
X013978Y001087D01*
X014011Y001048D01*
X014048Y001011D01*
X014087Y000978D01*
X014128Y000947D01*
X014172Y000920D01*
X014217Y000896D01*
X014265Y000876D01*
X014313Y000859D01*
X014363Y000846D01*
X014414Y000837D01*
X014465Y000831D01*
X014465Y000917D01*
X014418Y000922D01*
X014372Y000931D01*
X014327Y000944D01*
X014283Y000960D01*
X014241Y000980D01*
X014200Y001002D01*
X014161Y001028D01*
X014124Y001057D01*
X014089Y001089D01*
X014057Y001124D01*
X014028Y001161D01*
X014002Y001200D01*
X013980Y001241D01*
X013960Y001283D01*
X013944Y001327D01*
X013931Y001372D01*
X013922Y001418D01*
X013917Y001465D01*
X014002Y001465D01*
X014008Y001421D01*
X014017Y001378D01*
X014031Y001335D01*
X014048Y001294D01*
X014068Y001255D01*
X014092Y001217D01*
X014119Y001182D01*
X014149Y001149D01*
X014182Y001119D01*
X014217Y001092D01*
X014255Y001068D01*
X014294Y001048D01*
X014335Y001031D01*
X014378Y001017D01*
X014421Y001008D01*
X014465Y001002D01*
X014465Y001087D01*
X014427Y001093D01*
X014390Y001102D01*
X014353Y001115D01*
X014318Y001131D01*
X014285Y001150D01*
X014253Y001172D01*
X014223Y001196D01*
X014196Y001223D01*
X014172Y001253D01*
X014150Y001285D01*
X014131Y001318D01*
X014115Y001353D01*
X014102Y001390D01*
X014093Y001427D01*
X014087Y001465D01*
X014173Y001465D01*
X014179Y001432D01*
X014189Y001399D01*
X014201Y001367D01*
X014217Y001337D01*
X014236Y001308D01*
X014258Y001282D01*
X014282Y001258D01*
X014308Y001236D01*
X014337Y001217D01*
X014367Y001201D01*
X014399Y001189D01*
X014432Y001179D01*
X014465Y001173D01*
X002614Y001554D02*
X001801Y001554D01*
X001802Y001555D02*
X001794Y001588D01*
X001784Y001620D01*
X001769Y001651D01*
X001751Y001680D01*
X001730Y001706D01*
X001706Y001730D01*
X001680Y001751D01*
X001651Y001769D01*
X001620Y001784D01*
X001588Y001794D01*
X001555Y001802D01*
X001554Y002614D01*
X001555Y002614D01*
X001621Y002609D01*
X001686Y002601D01*
X001751Y002589D01*
X001814Y002572D01*
X001877Y002552D01*
X001938Y002529D01*
X001998Y002501D01*
X002056Y002470D01*
X002113Y002436D01*
X002167Y002399D01*
X002219Y002358D01*
X002268Y002314D01*
X002314Y002268D01*
X002358Y002219D01*
X002399Y002167D01*
X002436Y002113D01*
X002470Y002056D01*
X002501Y001998D01*
X002529Y001938D01*
X002552Y001877D01*
X002572Y001814D01*
X002589Y001751D01*
X002601Y001686D01*
X002609Y001621D01*
X002614Y001555D01*
X002529Y001555D01*
X002524Y001618D01*
X002516Y001680D01*
X002503Y001742D01*
X002487Y001803D01*
X002467Y001863D01*
X002444Y001921D01*
X002416Y001978D01*
X002386Y002033D01*
X002352Y002086D01*
X002315Y002137D01*
X002274Y002185D01*
X002231Y002231D01*
X002185Y002274D01*
X002137Y002315D01*
X002086Y002352D01*
X002033Y002386D01*
X001978Y002416D01*
X001921Y002444D01*
X001863Y002467D01*
X001803Y002487D01*
X001742Y002503D01*
X001680Y002516D01*
X001618Y002524D01*
X001555Y002529D01*
X001555Y002444D01*
X001615Y002439D01*
X001674Y002430D01*
X001733Y002418D01*
X001790Y002402D01*
X001847Y002382D01*
X001902Y002359D01*
X001956Y002332D01*
X002007Y002302D01*
X002057Y002268D01*
X002105Y002232D01*
X002150Y002192D01*
X002192Y002150D01*
X002232Y002105D01*
X002268Y002057D01*
X002302Y002007D01*
X002332Y001956D01*
X002359Y001902D01*
X002382Y001847D01*
X002402Y001790D01*
X002418Y001733D01*
X002430Y001674D01*
X002439Y001615D01*
X002444Y001555D01*
X002359Y001555D01*
X002354Y001611D01*
X002345Y001667D01*
X002333Y001723D01*
X002317Y001777D01*
X002297Y001830D01*
X002274Y001882D01*
X002248Y001932D01*
X002218Y001980D01*
X002186Y002026D01*
X002150Y002070D01*
X002111Y002111D01*
X002070Y002150D01*
X002026Y002186D01*
X001980Y002218D01*
X001932Y002248D01*
X001882Y002274D01*
X001830Y002297D01*
X001777Y002317D01*
X001723Y002333D01*
X001667Y002345D01*
X001611Y002354D01*
X001555Y002359D01*
X001555Y002274D01*
X001608Y002269D01*
X001660Y002260D01*
X001711Y002248D01*
X001762Y002232D01*
X001811Y002213D01*
X001859Y002191D01*
X001905Y002165D01*
X001950Y002136D01*
X001992Y002104D01*
X002032Y002069D01*
X002069Y002032D01*
X002104Y001992D01*
X002136Y001950D01*
X002165Y001905D01*
X002191Y001859D01*
X002213Y001811D01*
X002232Y001762D01*
X002248Y001711D01*
X002260Y001660D01*
X002269Y001608D01*
X002274Y001555D01*
X002189Y001555D01*
X002183Y001606D01*
X002174Y001657D01*
X002161Y001707D01*
X002144Y001755D01*
X002124Y001803D01*
X002100Y001848D01*
X002073Y001892D01*
X002042Y001933D01*
X002009Y001972D01*
X001972Y002009D01*
X001933Y002042D01*
X001892Y002073D01*
X001848Y002100D01*
X001803Y002124D01*
X001755Y002144D01*
X001707Y002161D01*
X001657Y002174D01*
X001606Y002183D01*
X001555Y002189D01*
X001555Y002103D01*
X001602Y002098D01*
X001648Y002089D01*
X001693Y002076D01*
X001737Y002060D01*
X001779Y002040D01*
X001820Y002018D01*
X001859Y001992D01*
X001896Y001963D01*
X001931Y001931D01*
X001963Y001896D01*
X001992Y001859D01*
X002018Y001820D01*
X002040Y001779D01*
X002060Y001737D01*
X002076Y001693D01*
X002089Y001648D01*
X002098Y001602D01*
X002103Y001555D01*
X002018Y001555D01*
X002012Y001599D01*
X002003Y001642D01*
X001989Y001685D01*
X001972Y001726D01*
X001952Y001765D01*
X001928Y001803D01*
X001901Y001838D01*
X001871Y001871D01*
X001838Y001901D01*
X001803Y001928D01*
X001765Y001952D01*
X001726Y001972D01*
X001685Y001989D01*
X001642Y002003D01*
X001599Y002012D01*
X001555Y002018D01*
X001555Y001933D01*
X001593Y001927D01*
X001630Y001918D01*
X001667Y001905D01*
X001702Y001889D01*
X001735Y001870D01*
X001767Y001848D01*
X001797Y001824D01*
X001824Y001797D01*
X001848Y001767D01*
X001870Y001735D01*
X001889Y001702D01*
X001905Y001667D01*
X001918Y001630D01*
X001927Y001593D01*
X001933Y001555D01*
X001847Y001555D01*
X001841Y001588D01*
X001831Y001621D01*
X001819Y001653D01*
X001803Y001683D01*
X001784Y001712D01*
X001762Y001738D01*
X001738Y001762D01*
X001712Y001784D01*
X001683Y001803D01*
X001653Y001819D01*
X001621Y001831D01*
X001588Y001841D01*
X001555Y001847D01*
X000406Y001466D02*
X001219Y001466D01*
X001218Y001465D02*
X001226Y001432D01*
X001236Y001400D01*
X001251Y001369D01*
X001269Y001340D01*
X001290Y001314D01*
X001314Y001290D01*
X001340Y001269D01*
X001369Y001251D01*
X001400Y001236D01*
X001432Y001226D01*
X001465Y001218D01*
X001466Y000406D01*
X001465Y000406D01*
X001399Y000411D01*
X001334Y000419D01*
X001269Y000431D01*
X001206Y000448D01*
X001143Y000468D01*
X001082Y000491D01*
X001022Y000519D01*
X000964Y000550D01*
X000907Y000584D01*
X000853Y000621D01*
X000801Y000662D01*
X000752Y000706D01*
X000706Y000752D01*
X000662Y000801D01*
X000621Y000853D01*
X000584Y000907D01*
X000550Y000964D01*
X000519Y001022D01*
X000491Y001082D01*
X000468Y001143D01*
X000448Y001206D01*
X000431Y001269D01*
X000419Y001334D01*
X000411Y001399D01*
X000406Y001465D01*
X000491Y001465D01*
X000496Y001402D01*
X000504Y001340D01*
X000517Y001278D01*
X000533Y001217D01*
X000553Y001157D01*
X000576Y001099D01*
X000604Y001042D01*
X000634Y000987D01*
X000668Y000934D01*
X000705Y000883D01*
X000746Y000835D01*
X000789Y000789D01*
X000835Y000746D01*
X000883Y000705D01*
X000934Y000668D01*
X000987Y000634D01*
X001042Y000604D01*
X001099Y000576D01*
X001157Y000553D01*
X001217Y000533D01*
X001278Y000517D01*
X001340Y000504D01*
X001402Y000496D01*
X001465Y000491D01*
X001465Y000576D01*
X001405Y000581D01*
X001346Y000590D01*
X001287Y000602D01*
X001230Y000618D01*
X001173Y000638D01*
X001118Y000661D01*
X001064Y000688D01*
X001013Y000718D01*
X000963Y000752D01*
X000915Y000788D01*
X000870Y000828D01*
X000828Y000870D01*
X000788Y000915D01*
X000752Y000963D01*
X000718Y001013D01*
X000688Y001064D01*
X000661Y001118D01*
X000638Y001173D01*
X000618Y001230D01*
X000602Y001287D01*
X000590Y001346D01*
X000581Y001405D01*
X000576Y001465D01*
X000661Y001465D01*
X000666Y001409D01*
X000675Y001353D01*
X000687Y001297D01*
X000703Y001243D01*
X000723Y001190D01*
X000746Y001138D01*
X000772Y001088D01*
X000802Y001040D01*
X000834Y000994D01*
X000870Y000950D01*
X000909Y000909D01*
X000950Y000870D01*
X000994Y000834D01*
X001040Y000802D01*
X001088Y000772D01*
X001138Y000746D01*
X001190Y000723D01*
X001243Y000703D01*
X001297Y000687D01*
X001353Y000675D01*
X001409Y000666D01*
X001465Y000661D01*
X001465Y000746D01*
X001412Y000751D01*
X001360Y000760D01*
X001309Y000772D01*
X001258Y000788D01*
X001209Y000807D01*
X001161Y000829D01*
X001115Y000855D01*
X001070Y000884D01*
X001028Y000916D01*
X000988Y000951D01*
X000951Y000988D01*
X000916Y001028D01*
X000884Y001070D01*
X000855Y001115D01*
X000829Y001161D01*
X000807Y001209D01*
X000788Y001258D01*
X000772Y001309D01*
X000760Y001360D01*
X000751Y001412D01*
X000746Y001465D01*
X000831Y001465D01*
X000837Y001414D01*
X000846Y001363D01*
X000859Y001313D01*
X000876Y001265D01*
X000896Y001217D01*
X000920Y001172D01*
X000947Y001128D01*
X000978Y001087D01*
X001011Y001048D01*
X001048Y001011D01*
X001087Y000978D01*
X001128Y000947D01*
X001172Y000920D01*
X001217Y000896D01*
X001265Y000876D01*
X001313Y000859D01*
X001363Y000846D01*
X001414Y000837D01*
X001465Y000831D01*
X001465Y000917D01*
X001418Y000922D01*
X001372Y000931D01*
X001327Y000944D01*
X001283Y000960D01*
X001241Y000980D01*
X001200Y001002D01*
X001161Y001028D01*
X001124Y001057D01*
X001089Y001089D01*
X001057Y001124D01*
X001028Y001161D01*
X001002Y001200D01*
X000980Y001241D01*
X000960Y001283D01*
X000944Y001327D01*
X000931Y001372D01*
X000922Y001418D01*
X000917Y001465D01*
X001002Y001465D01*
X001008Y001421D01*
X001017Y001378D01*
X001031Y001335D01*
X001048Y001294D01*
X001068Y001255D01*
X001092Y001217D01*
X001119Y001182D01*
X001149Y001149D01*
X001182Y001119D01*
X001217Y001092D01*
X001255Y001068D01*
X001294Y001048D01*
X001335Y001031D01*
X001378Y001017D01*
X001421Y001008D01*
X001465Y001002D01*
X001465Y001087D01*
X001427Y001093D01*
X001390Y001102D01*
X001353Y001115D01*
X001318Y001131D01*
X001285Y001150D01*
X001253Y001172D01*
X001223Y001196D01*
X001196Y001223D01*
X001172Y001253D01*
X001150Y001285D01*
X001131Y001318D01*
X001115Y001353D01*
X001102Y001390D01*
X001093Y001427D01*
X001087Y001465D01*
X001173Y001465D01*
X001179Y001432D01*
X001189Y001399D01*
X001201Y001367D01*
X001217Y001337D01*
X001236Y001308D01*
X001258Y001282D01*
X001282Y001258D01*
X001308Y001236D01*
X001337Y001217D01*
X001367Y001201D01*
X001399Y001189D01*
X001432Y001179D01*
X001465Y001173D01*
X002614Y014554D02*
X001801Y014554D01*
X001802Y014555D02*
X001794Y014588D01*
X001784Y014620D01*
X001769Y014651D01*
X001751Y014680D01*
X001730Y014706D01*
X001706Y014730D01*
X001680Y014751D01*
X001651Y014769D01*
X001620Y014784D01*
X001588Y014794D01*
X001555Y014802D01*
X001554Y015614D01*
X001555Y015614D01*
X001621Y015609D01*
X001686Y015601D01*
X001751Y015589D01*
X001814Y015572D01*
X001877Y015552D01*
X001938Y015529D01*
X001998Y015501D01*
X002056Y015470D01*
X002113Y015436D01*
X002167Y015399D01*
X002219Y015358D01*
X002268Y015314D01*
X002314Y015268D01*
X002358Y015219D01*
X002399Y015167D01*
X002436Y015113D01*
X002470Y015056D01*
X002501Y014998D01*
X002529Y014938D01*
X002552Y014877D01*
X002572Y014814D01*
X002589Y014751D01*
X002601Y014686D01*
X002609Y014621D01*
X002614Y014555D01*
X002529Y014555D01*
X002524Y014618D01*
X002516Y014680D01*
X002503Y014742D01*
X002487Y014803D01*
X002467Y014863D01*
X002444Y014921D01*
X002416Y014978D01*
X002386Y015033D01*
X002352Y015086D01*
X002315Y015137D01*
X002274Y015185D01*
X002231Y015231D01*
X002185Y015274D01*
X002137Y015315D01*
X002086Y015352D01*
X002033Y015386D01*
X001978Y015416D01*
X001921Y015444D01*
X001863Y015467D01*
X001803Y015487D01*
X001742Y015503D01*
X001680Y015516D01*
X001618Y015524D01*
X001555Y015529D01*
X001555Y015444D01*
X001615Y015439D01*
X001674Y015430D01*
X001733Y015418D01*
X001790Y015402D01*
X001847Y015382D01*
X001902Y015359D01*
X001956Y015332D01*
X002007Y015302D01*
X002057Y015268D01*
X002105Y015232D01*
X002150Y015192D01*
X002192Y015150D01*
X002232Y015105D01*
X002268Y015057D01*
X002302Y015007D01*
X002332Y014956D01*
X002359Y014902D01*
X002382Y014847D01*
X002402Y014790D01*
X002418Y014733D01*
X002430Y014674D01*
X002439Y014615D01*
X002444Y014555D01*
X002359Y014555D01*
X002354Y014611D01*
X002345Y014667D01*
X002333Y014723D01*
X002317Y014777D01*
X002297Y014830D01*
X002274Y014882D01*
X002248Y014932D01*
X002218Y014980D01*
X002186Y015026D01*
X002150Y015070D01*
X002111Y015111D01*
X002070Y015150D01*
X002026Y015186D01*
X001980Y015218D01*
X001932Y015248D01*
X001882Y015274D01*
X001830Y015297D01*
X001777Y015317D01*
X001723Y015333D01*
X001667Y015345D01*
X001611Y015354D01*
X001555Y015359D01*
X001555Y015274D01*
X001608Y015269D01*
X001660Y015260D01*
X001711Y015248D01*
X001762Y015232D01*
X001811Y015213D01*
X001859Y015191D01*
X001905Y015165D01*
X001950Y015136D01*
X001992Y015104D01*
X002032Y015069D01*
X002069Y015032D01*
X002104Y014992D01*
X002136Y014950D01*
X002165Y014905D01*
X002191Y014859D01*
X002213Y014811D01*
X002232Y014762D01*
X002248Y014711D01*
X002260Y014660D01*
X002269Y014608D01*
X002274Y014555D01*
X002189Y014555D01*
X002183Y014606D01*
X002174Y014657D01*
X002161Y014707D01*
X002144Y014755D01*
X002124Y014803D01*
X002100Y014848D01*
X002073Y014892D01*
X002042Y014933D01*
X002009Y014972D01*
X001972Y015009D01*
X001933Y015042D01*
X001892Y015073D01*
X001848Y015100D01*
X001803Y015124D01*
X001755Y015144D01*
X001707Y015161D01*
X001657Y015174D01*
X001606Y015183D01*
X001555Y015189D01*
X001555Y015103D01*
X001602Y015098D01*
X001648Y015089D01*
X001693Y015076D01*
X001737Y015060D01*
X001779Y015040D01*
X001820Y015018D01*
X001859Y014992D01*
X001896Y014963D01*
X001931Y014931D01*
X001963Y014896D01*
X001992Y014859D01*
X002018Y014820D01*
X002040Y014779D01*
X002060Y014737D01*
X002076Y014693D01*
X002089Y014648D01*
X002098Y014602D01*
X002103Y014555D01*
X002018Y014555D01*
X002012Y014599D01*
X002003Y014642D01*
X001989Y014685D01*
X001972Y014726D01*
X001952Y014765D01*
X001928Y014803D01*
X001901Y014838D01*
X001871Y014871D01*
X001838Y014901D01*
X001803Y014928D01*
X001765Y014952D01*
X001726Y014972D01*
X001685Y014989D01*
X001642Y015003D01*
X001599Y015012D01*
X001555Y015018D01*
X001555Y014933D01*
X001593Y014927D01*
X001630Y014918D01*
X001667Y014905D01*
X001702Y014889D01*
X001735Y014870D01*
X001767Y014848D01*
X001797Y014824D01*
X001824Y014797D01*
X001848Y014767D01*
X001870Y014735D01*
X001889Y014702D01*
X001905Y014667D01*
X001918Y014630D01*
X001927Y014593D01*
X001933Y014555D01*
X001847Y014555D01*
X001841Y014588D01*
X001831Y014621D01*
X001819Y014653D01*
X001803Y014683D01*
X001784Y014712D01*
X001762Y014738D01*
X001738Y014762D01*
X001712Y014784D01*
X001683Y014803D01*
X001653Y014819D01*
X001621Y014831D01*
X001588Y014841D01*
X001555Y014847D01*
X000406Y014466D02*
X001219Y014466D01*
X001218Y014465D02*
X001226Y014432D01*
X001236Y014400D01*
X001251Y014369D01*
X001269Y014340D01*
X001290Y014314D01*
X001314Y014290D01*
X001340Y014269D01*
X001369Y014251D01*
X001400Y014236D01*
X001432Y014226D01*
X001465Y014218D01*
X001466Y013406D01*
X001465Y013406D01*
X001399Y013411D01*
X001334Y013419D01*
X001269Y013431D01*
X001206Y013448D01*
X001143Y013468D01*
X001082Y013491D01*
X001022Y013519D01*
X000964Y013550D01*
X000907Y013584D01*
X000853Y013621D01*
X000801Y013662D01*
X000752Y013706D01*
X000706Y013752D01*
X000662Y013801D01*
X000621Y013853D01*
X000584Y013907D01*
X000550Y013964D01*
X000519Y014022D01*
X000491Y014082D01*
X000468Y014143D01*
X000448Y014206D01*
X000431Y014269D01*
X000419Y014334D01*
X000411Y014399D01*
X000406Y014465D01*
X000491Y014465D01*
X000496Y014402D01*
X000504Y014340D01*
X000517Y014278D01*
X000533Y014217D01*
X000553Y014157D01*
X000576Y014099D01*
X000604Y014042D01*
X000634Y013987D01*
X000668Y013934D01*
X000705Y013883D01*
X000746Y013835D01*
X000789Y013789D01*
X000835Y013746D01*
X000883Y013705D01*
X000934Y013668D01*
X000987Y013634D01*
X001042Y013604D01*
X001099Y013576D01*
X001157Y013553D01*
X001217Y013533D01*
X001278Y013517D01*
X001340Y013504D01*
X001402Y013496D01*
X001465Y013491D01*
X001465Y013576D01*
X001405Y013581D01*
X001346Y013590D01*
X001287Y013602D01*
X001230Y013618D01*
X001173Y013638D01*
X001118Y013661D01*
X001064Y013688D01*
X001013Y013718D01*
X000963Y013752D01*
X000915Y013788D01*
X000870Y013828D01*
X000828Y013870D01*
X000788Y013915D01*
X000752Y013963D01*
X000718Y014013D01*
X000688Y014064D01*
X000661Y014118D01*
X000638Y014173D01*
X000618Y014230D01*
X000602Y014287D01*
X000590Y014346D01*
X000581Y014405D01*
X000576Y014465D01*
X000661Y014465D01*
X000666Y014409D01*
X000675Y014353D01*
X000687Y014297D01*
X000703Y014243D01*
X000723Y014190D01*
X000746Y014138D01*
X000772Y014088D01*
X000802Y014040D01*
X000834Y013994D01*
X000870Y013950D01*
X000909Y013909D01*
X000950Y013870D01*
X000994Y013834D01*
X001040Y013802D01*
X001088Y013772D01*
X001138Y013746D01*
X001190Y013723D01*
X001243Y013703D01*
X001297Y013687D01*
X001353Y013675D01*
X001409Y013666D01*
X001465Y013661D01*
X001465Y013746D01*
X001412Y013751D01*
X001360Y013760D01*
X001309Y013772D01*
X001258Y013788D01*
X001209Y013807D01*
X001161Y013829D01*
X001115Y013855D01*
X001070Y013884D01*
X001028Y013916D01*
X000988Y013951D01*
X000951Y013988D01*
X000916Y014028D01*
X000884Y014070D01*
X000855Y014115D01*
X000829Y014161D01*
X000807Y014209D01*
X000788Y014258D01*
X000772Y014309D01*
X000760Y014360D01*
X000751Y014412D01*
X000746Y014465D01*
X000831Y014465D01*
X000837Y014414D01*
X000846Y014363D01*
X000859Y014313D01*
X000876Y014265D01*
X000896Y014217D01*
X000920Y014172D01*
X000947Y014128D01*
X000978Y014087D01*
X001011Y014048D01*
X001048Y014011D01*
X001087Y013978D01*
X001128Y013947D01*
X001172Y013920D01*
X001217Y013896D01*
X001265Y013876D01*
X001313Y013859D01*
X001363Y013846D01*
X001414Y013837D01*
X001465Y013831D01*
X001465Y013917D01*
X001418Y013922D01*
X001372Y013931D01*
X001327Y013944D01*
X001283Y013960D01*
X001241Y013980D01*
X001200Y014002D01*
X001161Y014028D01*
X001124Y014057D01*
X001089Y014089D01*
X001057Y014124D01*
X001028Y014161D01*
X001002Y014200D01*
X000980Y014241D01*
X000960Y014283D01*
X000944Y014327D01*
X000931Y014372D01*
X000922Y014418D01*
X000917Y014465D01*
X001002Y014465D01*
X001008Y014421D01*
X001017Y014378D01*
X001031Y014335D01*
X001048Y014294D01*
X001068Y014255D01*
X001092Y014217D01*
X001119Y014182D01*
X001149Y014149D01*
X001182Y014119D01*
X001217Y014092D01*
X001255Y014068D01*
X001294Y014048D01*
X001335Y014031D01*
X001378Y014017D01*
X001421Y014008D01*
X001465Y014002D01*
X001465Y014087D01*
X001427Y014093D01*
X001390Y014102D01*
X001353Y014115D01*
X001318Y014131D01*
X001285Y014150D01*
X001253Y014172D01*
X001223Y014196D01*
X001196Y014223D01*
X001172Y014253D01*
X001150Y014285D01*
X001131Y014318D01*
X001115Y014353D01*
X001102Y014390D01*
X001093Y014427D01*
X001087Y014465D01*
X001173Y014465D01*
X001179Y014432D01*
X001189Y014399D01*
X001201Y014367D01*
X001217Y014337D01*
X001236Y014308D01*
X001258Y014282D01*
X001282Y014258D01*
X001308Y014236D01*
X001337Y014217D01*
X001367Y014201D01*
X001399Y014189D01*
X001432Y014179D01*
X001465Y014173D01*
D14*
X001260Y014510D02*
X001262Y014541D01*
X001268Y014572D01*
X001278Y014602D01*
X001291Y014630D01*
X001308Y014657D01*
X001328Y014681D01*
X001351Y014703D01*
X001376Y014721D01*
X001404Y014736D01*
X001433Y014748D01*
X001463Y014756D01*
X001494Y014760D01*
X001526Y014760D01*
X001557Y014756D01*
X001587Y014748D01*
X001616Y014736D01*
X001644Y014721D01*
X001669Y014703D01*
X001692Y014681D01*
X001712Y014657D01*
X001729Y014630D01*
X001742Y014602D01*
X001752Y014572D01*
X001758Y014541D01*
X001760Y014510D01*
X001758Y014479D01*
X001752Y014448D01*
X001742Y014418D01*
X001729Y014390D01*
X001712Y014363D01*
X001692Y014339D01*
X001669Y014317D01*
X001644Y014299D01*
X001616Y014284D01*
X001587Y014272D01*
X001557Y014264D01*
X001526Y014260D01*
X001494Y014260D01*
X001463Y014264D01*
X001433Y014272D01*
X001404Y014284D01*
X001376Y014299D01*
X001351Y014317D01*
X001328Y014339D01*
X001308Y014363D01*
X001291Y014390D01*
X001278Y014418D01*
X001268Y014448D01*
X001262Y014479D01*
X001260Y014510D01*
X001260Y001510D02*
X001262Y001541D01*
X001268Y001572D01*
X001278Y001602D01*
X001291Y001630D01*
X001308Y001657D01*
X001328Y001681D01*
X001351Y001703D01*
X001376Y001721D01*
X001404Y001736D01*
X001433Y001748D01*
X001463Y001756D01*
X001494Y001760D01*
X001526Y001760D01*
X001557Y001756D01*
X001587Y001748D01*
X001616Y001736D01*
X001644Y001721D01*
X001669Y001703D01*
X001692Y001681D01*
X001712Y001657D01*
X001729Y001630D01*
X001742Y001602D01*
X001752Y001572D01*
X001758Y001541D01*
X001760Y001510D01*
X001758Y001479D01*
X001752Y001448D01*
X001742Y001418D01*
X001729Y001390D01*
X001712Y001363D01*
X001692Y001339D01*
X001669Y001317D01*
X001644Y001299D01*
X001616Y001284D01*
X001587Y001272D01*
X001557Y001264D01*
X001526Y001260D01*
X001494Y001260D01*
X001463Y001264D01*
X001433Y001272D01*
X001404Y001284D01*
X001376Y001299D01*
X001351Y001317D01*
X001328Y001339D01*
X001308Y001363D01*
X001291Y001390D01*
X001278Y001418D01*
X001268Y001448D01*
X001262Y001479D01*
X001260Y001510D01*
X014260Y001510D02*
X014262Y001541D01*
X014268Y001572D01*
X014278Y001602D01*
X014291Y001630D01*
X014308Y001657D01*
X014328Y001681D01*
X014351Y001703D01*
X014376Y001721D01*
X014404Y001736D01*
X014433Y001748D01*
X014463Y001756D01*
X014494Y001760D01*
X014526Y001760D01*
X014557Y001756D01*
X014587Y001748D01*
X014616Y001736D01*
X014644Y001721D01*
X014669Y001703D01*
X014692Y001681D01*
X014712Y001657D01*
X014729Y001630D01*
X014742Y001602D01*
X014752Y001572D01*
X014758Y001541D01*
X014760Y001510D01*
X014758Y001479D01*
X014752Y001448D01*
X014742Y001418D01*
X014729Y001390D01*
X014712Y001363D01*
X014692Y001339D01*
X014669Y001317D01*
X014644Y001299D01*
X014616Y001284D01*
X014587Y001272D01*
X014557Y001264D01*
X014526Y001260D01*
X014494Y001260D01*
X014463Y001264D01*
X014433Y001272D01*
X014404Y001284D01*
X014376Y001299D01*
X014351Y001317D01*
X014328Y001339D01*
X014308Y001363D01*
X014291Y001390D01*
X014278Y001418D01*
X014268Y001448D01*
X014262Y001479D01*
X014260Y001510D01*
X014260Y014510D02*
X014262Y014541D01*
X014268Y014572D01*
X014278Y014602D01*
X014291Y014630D01*
X014308Y014657D01*
X014328Y014681D01*
X014351Y014703D01*
X014376Y014721D01*
X014404Y014736D01*
X014433Y014748D01*
X014463Y014756D01*
X014494Y014760D01*
X014526Y014760D01*
X014557Y014756D01*
X014587Y014748D01*
X014616Y014736D01*
X014644Y014721D01*
X014669Y014703D01*
X014692Y014681D01*
X014712Y014657D01*
X014729Y014630D01*
X014742Y014602D01*
X014752Y014572D01*
X014758Y014541D01*
X014760Y014510D01*
X014758Y014479D01*
X014752Y014448D01*
X014742Y014418D01*
X014729Y014390D01*
X014712Y014363D01*
X014692Y014339D01*
X014669Y014317D01*
X014644Y014299D01*
X014616Y014284D01*
X014587Y014272D01*
X014557Y014264D01*
X014526Y014260D01*
X014494Y014260D01*
X014463Y014264D01*
X014433Y014272D01*
X014404Y014284D01*
X014376Y014299D01*
X014351Y014317D01*
X014328Y014339D01*
X014308Y014363D01*
X014291Y014390D01*
X014278Y014418D01*
X014268Y014448D01*
X014262Y014479D01*
X014260Y014510D01*
D15*
X013919Y014510D02*
X013921Y014558D01*
X013927Y014606D01*
X013937Y014653D01*
X013950Y014699D01*
X013968Y014744D01*
X013988Y014788D01*
X014013Y014830D01*
X014041Y014869D01*
X014071Y014906D01*
X014105Y014940D01*
X014142Y014972D01*
X014180Y015001D01*
X014221Y015026D01*
X014264Y015048D01*
X014309Y015066D01*
X014355Y015080D01*
X014402Y015091D01*
X014450Y015098D01*
X014498Y015101D01*
X014546Y015100D01*
X014594Y015095D01*
X014642Y015086D01*
X014688Y015074D01*
X014733Y015057D01*
X014777Y015037D01*
X014819Y015014D01*
X014859Y014987D01*
X014897Y014957D01*
X014932Y014924D01*
X014964Y014888D01*
X014994Y014850D01*
X015020Y014809D01*
X015042Y014766D01*
X015062Y014722D01*
X015077Y014677D01*
X015089Y014630D01*
X015097Y014582D01*
X015101Y014534D01*
X015101Y014486D01*
X015097Y014438D01*
X015089Y014390D01*
X015077Y014343D01*
X015062Y014298D01*
X015042Y014254D01*
X015020Y014211D01*
X014994Y014170D01*
X014964Y014132D01*
X014932Y014096D01*
X014897Y014063D01*
X014859Y014033D01*
X014819Y014006D01*
X014777Y013983D01*
X014733Y013963D01*
X014688Y013946D01*
X014642Y013934D01*
X014594Y013925D01*
X014546Y013920D01*
X014498Y013919D01*
X014450Y013922D01*
X014402Y013929D01*
X014355Y013940D01*
X014309Y013954D01*
X014264Y013972D01*
X014221Y013994D01*
X014180Y014019D01*
X014142Y014048D01*
X014105Y014080D01*
X014071Y014114D01*
X014041Y014151D01*
X014013Y014190D01*
X013988Y014232D01*
X013968Y014276D01*
X013950Y014321D01*
X013937Y014367D01*
X013927Y014414D01*
X013921Y014462D01*
X013919Y014510D01*
X000919Y014510D02*
X000921Y014558D01*
X000927Y014606D01*
X000937Y014653D01*
X000950Y014699D01*
X000968Y014744D01*
X000988Y014788D01*
X001013Y014830D01*
X001041Y014869D01*
X001071Y014906D01*
X001105Y014940D01*
X001142Y014972D01*
X001180Y015001D01*
X001221Y015026D01*
X001264Y015048D01*
X001309Y015066D01*
X001355Y015080D01*
X001402Y015091D01*
X001450Y015098D01*
X001498Y015101D01*
X001546Y015100D01*
X001594Y015095D01*
X001642Y015086D01*
X001688Y015074D01*
X001733Y015057D01*
X001777Y015037D01*
X001819Y015014D01*
X001859Y014987D01*
X001897Y014957D01*
X001932Y014924D01*
X001964Y014888D01*
X001994Y014850D01*
X002020Y014809D01*
X002042Y014766D01*
X002062Y014722D01*
X002077Y014677D01*
X002089Y014630D01*
X002097Y014582D01*
X002101Y014534D01*
X002101Y014486D01*
X002097Y014438D01*
X002089Y014390D01*
X002077Y014343D01*
X002062Y014298D01*
X002042Y014254D01*
X002020Y014211D01*
X001994Y014170D01*
X001964Y014132D01*
X001932Y014096D01*
X001897Y014063D01*
X001859Y014033D01*
X001819Y014006D01*
X001777Y013983D01*
X001733Y013963D01*
X001688Y013946D01*
X001642Y013934D01*
X001594Y013925D01*
X001546Y013920D01*
X001498Y013919D01*
X001450Y013922D01*
X001402Y013929D01*
X001355Y013940D01*
X001309Y013954D01*
X001264Y013972D01*
X001221Y013994D01*
X001180Y014019D01*
X001142Y014048D01*
X001105Y014080D01*
X001071Y014114D01*
X001041Y014151D01*
X001013Y014190D01*
X000988Y014232D01*
X000968Y014276D01*
X000950Y014321D01*
X000937Y014367D01*
X000927Y014414D01*
X000921Y014462D01*
X000919Y014510D01*
X000919Y001510D02*
X000921Y001558D01*
X000927Y001606D01*
X000937Y001653D01*
X000950Y001699D01*
X000968Y001744D01*
X000988Y001788D01*
X001013Y001830D01*
X001041Y001869D01*
X001071Y001906D01*
X001105Y001940D01*
X001142Y001972D01*
X001180Y002001D01*
X001221Y002026D01*
X001264Y002048D01*
X001309Y002066D01*
X001355Y002080D01*
X001402Y002091D01*
X001450Y002098D01*
X001498Y002101D01*
X001546Y002100D01*
X001594Y002095D01*
X001642Y002086D01*
X001688Y002074D01*
X001733Y002057D01*
X001777Y002037D01*
X001819Y002014D01*
X001859Y001987D01*
X001897Y001957D01*
X001932Y001924D01*
X001964Y001888D01*
X001994Y001850D01*
X002020Y001809D01*
X002042Y001766D01*
X002062Y001722D01*
X002077Y001677D01*
X002089Y001630D01*
X002097Y001582D01*
X002101Y001534D01*
X002101Y001486D01*
X002097Y001438D01*
X002089Y001390D01*
X002077Y001343D01*
X002062Y001298D01*
X002042Y001254D01*
X002020Y001211D01*
X001994Y001170D01*
X001964Y001132D01*
X001932Y001096D01*
X001897Y001063D01*
X001859Y001033D01*
X001819Y001006D01*
X001777Y000983D01*
X001733Y000963D01*
X001688Y000946D01*
X001642Y000934D01*
X001594Y000925D01*
X001546Y000920D01*
X001498Y000919D01*
X001450Y000922D01*
X001402Y000929D01*
X001355Y000940D01*
X001309Y000954D01*
X001264Y000972D01*
X001221Y000994D01*
X001180Y001019D01*
X001142Y001048D01*
X001105Y001080D01*
X001071Y001114D01*
X001041Y001151D01*
X001013Y001190D01*
X000988Y001232D01*
X000968Y001276D01*
X000950Y001321D01*
X000937Y001367D01*
X000927Y001414D01*
X000921Y001462D01*
X000919Y001510D01*
X013919Y001510D02*
X013921Y001558D01*
X013927Y001606D01*
X013937Y001653D01*
X013950Y001699D01*
X013968Y001744D01*
X013988Y001788D01*
X014013Y001830D01*
X014041Y001869D01*
X014071Y001906D01*
X014105Y001940D01*
X014142Y001972D01*
X014180Y002001D01*
X014221Y002026D01*
X014264Y002048D01*
X014309Y002066D01*
X014355Y002080D01*
X014402Y002091D01*
X014450Y002098D01*
X014498Y002101D01*
X014546Y002100D01*
X014594Y002095D01*
X014642Y002086D01*
X014688Y002074D01*
X014733Y002057D01*
X014777Y002037D01*
X014819Y002014D01*
X014859Y001987D01*
X014897Y001957D01*
X014932Y001924D01*
X014964Y001888D01*
X014994Y001850D01*
X015020Y001809D01*
X015042Y001766D01*
X015062Y001722D01*
X015077Y001677D01*
X015089Y001630D01*
X015097Y001582D01*
X015101Y001534D01*
X015101Y001486D01*
X015097Y001438D01*
X015089Y001390D01*
X015077Y001343D01*
X015062Y001298D01*
X015042Y001254D01*
X015020Y001211D01*
X014994Y001170D01*
X014964Y001132D01*
X014932Y001096D01*
X014897Y001063D01*
X014859Y001033D01*
X014819Y001006D01*
X014777Y000983D01*
X014733Y000963D01*
X014688Y000946D01*
X014642Y000934D01*
X014594Y000925D01*
X014546Y000920D01*
X014498Y000919D01*
X014450Y000922D01*
X014402Y000929D01*
X014355Y000940D01*
X014309Y000954D01*
X014264Y000972D01*
X014221Y000994D01*
X014180Y001019D01*
X014142Y001048D01*
X014105Y001080D01*
X014071Y001114D01*
X014041Y001151D01*
X014013Y001190D01*
X013988Y001232D01*
X013968Y001276D01*
X013950Y001321D01*
X013937Y001367D01*
X013927Y001414D01*
X013921Y001462D01*
X013919Y001510D01*
M02*
