%
M48
M72
T01C0.0402
T02C0.1102
%
T01
X1510Y12510
X2510Y12510
X3510Y12510
X3510Y13510
X3510Y14510
X4510Y14510
X4510Y13510
X4510Y12510
X5510Y12510
X5510Y13510
X5510Y14510
X6510Y14510
X6510Y13510
X6510Y12510
X7510Y12510
X7510Y13510
X7510Y14510
X8510Y14510
X8510Y13510
X8510Y12510
X9510Y12510
X9510Y13510
X9510Y14510
X10510Y14510
X10510Y13510
X10510Y12510
X11510Y12510
X11510Y13510
X11510Y14510
X12510Y14510
X12510Y13510
X12510Y12510
X13510Y12510
X14510Y12510
X14510Y11510
X14510Y10510
X14510Y9510
X14510Y8510
X13510Y8510
X13510Y9510
X13510Y10510
X13510Y11510
X12510Y11510
X12510Y10510
X12510Y9510
X12510Y8510
X12510Y7510
X12510Y6510
X12510Y5510
X12510Y4510
X13510Y4510
X13510Y5510
X13510Y6510
X13510Y7510
X14510Y7510
X14510Y6510
X14510Y5510
X14510Y4510
X14510Y3510
X13510Y3510
X12510Y3510
X12510Y2510
X12510Y1510
X11510Y1510
X11510Y2510
X11510Y3510
X10510Y3510
X10510Y2510
X10510Y1510
X9510Y1510
X9510Y2510
X9510Y3510
X8510Y3510
X8510Y2510
X8510Y1510
X7510Y1510
X7510Y2510
X7510Y3510
X6510Y3510
X6510Y2510
X6510Y1510
X5510Y1510
X5510Y2510
X5510Y3510
X4510Y3510
X4510Y2510
X4510Y1510
X3510Y1510
X3510Y2510
X3510Y3510
X2510Y3510
X1510Y3510
X1510Y4510
X1510Y5510
X1510Y6510
X1510Y7510
X2510Y7510
X2510Y6510
X2510Y5510
X2510Y4510
X3510Y4510
X3510Y5510
X3510Y6510
X3510Y7510
X3510Y8510
X3510Y9510
X3510Y10510
X3510Y11510
X2510Y11510
X2510Y10510
X2510Y9510
X2510Y8510
X1510Y8510
X1510Y9510
X1510Y10510
X1510Y11510
X4510Y11510
X4510Y10510
X4510Y9510
X4510Y8510
X5510Y8510
X5510Y9510
X5510Y10510
X5510Y11510
X6510Y11510
X6510Y10510
X6510Y9510
X6510Y8510
X7510Y8510
X7510Y9510
X7510Y10510
X7510Y11510
X8510Y11510
X8510Y10510
X8510Y9510
X8510Y8510
X9510Y8510
X9510Y9510
X9510Y10510
X9510Y11510
X10510Y11510
X10510Y10510
X10510Y9510
X10510Y8510
X11510Y8510
X11510Y9510
X11510Y10510
X11510Y11510
X11510Y7510
X11510Y6510
X11510Y5510
X11510Y4510
X10510Y4510
X10510Y5510
X10510Y6510
X10510Y7510
X9510Y7510
X9510Y6510
X9510Y5510
X9510Y4510
X8510Y4510
X8510Y5510
X8510Y6510
X8510Y7510
X7510Y7510
X7510Y6510
X7510Y5510
X7510Y4510
X6510Y4510
X6510Y5510
X6510Y6510
X6510Y7510
X5510Y7510
X5510Y6510
X5510Y5510
X5510Y4510
X4510Y4510
X4510Y5510
X4510Y6510
X4510Y7510
T02
X1510Y14510
X1510Y1510
X14510Y1510
X14510Y14510
M30
